<svg xmlns="http://www.w3.org/2000/svg" viewBox="0 0 100 100">
  <defs>
    <linearGradient id="grad" x1="0%" y1="0%" x2="0%" y2="100%">
      <stop offset="0%" style="stop-color:#1e3a8a;stop-opacity:1" />
      <stop offset="100%" style="stop-color:#1e40a5;stop-opacity:1" />
    </linearGradient>
  </defs>
  <rect width="100" height="100" fill="#ffffff"/>
  <path d="M 30 20 Q 20 25 20 35 Q 20 45 30 50 Q 20 55 20 65 Q 20 75 30 80 L 70 80 Q 80 75 80 65 Q 80 55 70 50 Q 80 45 80 35 Q 80 25 70 20 Z" 
        fill="url(#grad)" 
        stroke="#0f172a" 
        stroke-width="2"/>
  <path d="M 30 20 Q 25 22 25 30 Q 25 38 30 40 Q 25 42 25 50 Q 25 58 30 60 Q 25 62 25 70 Q 25 78 30 80" 
        fill="none" 
        stroke="#ffffff" 
        stroke-width="1.5" 
        stroke-linecap="round"/>
  <path d="M 70 20 Q 75 22 75 30 Q 75 38 70 40 Q 75 42 75 50 Q 75 58 70 60 Q 75 62 75 70 Q 75 78 70 80" 
        fill="none" 
        stroke="#ffffff" 
        stroke-width="1.5" 
        stroke-linecap="round"/>
</svg>

